<svg width="27" height="27" viewBox="0 0 27 27" fill="none" xmlns="http://www.w3.org/2000/svg">
<g id="fluent:library-20-regular">
<path id="Vector" d="M2.61719 4.76082C2.61719 3.6769 3.49559 2.7998 4.58082 2.7998H5.88991C6.97253 2.7998 7.85224 3.6769 7.85224 4.76082V21.7554C7.85224 22.8381 6.97253 23.7152 5.88861 23.7152H4.57951C3.49559 23.7152 2.61719 22.8381 2.61719 21.7554V4.76082ZM4.58082 4.10628C4.40723 4.10628 4.24074 4.17524 4.11799 4.29799C3.99524 4.42074 3.92628 4.58723 3.92628 4.76082V21.7554C3.92663 21.9288 3.99574 22.095 4.11845 22.2174C4.24117 22.3399 4.40745 22.4087 4.58082 22.4087H5.88991C6.06328 22.4083 6.22943 22.3392 6.3519 22.2165C6.47437 22.0938 6.54315 21.9275 6.54315 21.7541V4.76213C6.54315 4.58854 6.47419 4.42205 6.35144 4.2993C6.22869 4.17655 6.0622 4.10759 5.88861 4.10759L4.58082 4.10628ZM9.16002 4.76082C9.16002 3.6769 10.0397 2.7998 11.1237 2.7998H12.4328C13.5167 2.7998 14.3951 3.6769 14.3951 4.76082V21.7554C14.3951 22.8381 13.5167 23.7152 12.4314 23.7152H11.1224C10.0397 23.7152 9.16002 22.8381 9.16002 21.7554V4.76082ZM11.1237 4.10628C10.9501 4.10628 10.7836 4.17524 10.6608 4.29799C10.5381 4.42074 10.4691 4.58723 10.4691 4.76082V21.7554C10.4695 21.9288 10.5386 22.095 10.6613 22.2174C10.784 22.3399 10.9503 22.4087 11.1237 22.4087H12.4328C12.6063 22.4087 12.7728 22.3397 12.8956 22.217C13.0183 22.0942 13.0873 21.9277 13.0873 21.7541V4.76213C13.0873 4.58854 13.0183 4.42205 12.8956 4.2993C12.7728 4.17655 12.6063 4.10759 12.4328 4.10759L11.1237 4.10628ZM20.5753 8.2417C20.5155 7.98255 20.4037 7.73826 20.2466 7.52363C20.0895 7.30901 19.8905 7.12853 19.6616 6.99314C19.4327 6.85775 19.1786 6.77027 18.9149 6.73601C18.6512 6.70175 18.3832 6.72143 18.1273 6.79384L17.152 7.06875C16.6758 7.20345 16.2682 7.51322 16.0108 7.93592C15.7535 8.35862 15.6654 8.86299 15.7644 9.34788L18.3865 22.177C18.4401 22.437 18.5458 22.6834 18.6973 22.9014C18.8488 23.1194 19.0429 23.3044 19.268 23.4452C19.493 23.5861 19.7442 23.6798 20.0065 23.7208C20.2688 23.7618 20.5366 23.7492 20.7939 23.6837L22.0834 23.3565C23.1176 23.0946 23.7512 22.0552 23.5129 21.0171L20.5753 8.2417ZM18.4834 8.05188C18.5687 8.02759 18.658 8.0209 18.746 8.03219C18.834 8.04349 18.9187 8.07255 18.9951 8.1176C19.0715 8.16266 19.1379 8.22276 19.1904 8.29428C19.2428 8.36579 19.2802 8.44722 19.3002 8.53362L22.2365 21.3104C22.2742 21.4767 22.2455 21.6511 22.1565 21.7966C22.0675 21.9421 21.9253 22.0471 21.76 22.0893L20.4706 22.4165C20.3849 22.4384 20.2956 22.4426 20.2083 22.429C20.1209 22.4154 20.0372 22.3842 19.9622 22.3373C19.8872 22.2905 19.8225 22.2289 19.7719 22.1564C19.7214 22.0838 19.6861 22.0017 19.6681 21.9151L17.046 9.08606C17.0133 8.92457 17.0427 8.7567 17.1284 8.61596C17.2141 8.47522 17.3496 8.37195 17.5081 8.32679L18.4834 8.05188Z" fill="#807F8B"/>
</g>
</svg>
