<svg width="27" height="27" viewBox="0 0 27 27" fill="none" xmlns="http://www.w3.org/2000/svg">
<g id="prime:sign-in">
<path id="Vector" d="M19.6378 22.9998H16.3651C16.1481 22.9998 15.94 22.9135 15.7865 22.7601C15.6331 22.6067 15.5469 22.3986 15.5469 22.1816C15.5469 21.9646 15.6331 21.7565 15.7865 21.603C15.94 21.4496 16.1481 21.3634 16.3651 21.3634H19.6378C19.9617 21.3916 20.284 21.294 20.5379 21.0908C20.7918 20.8877 20.9578 20.5947 21.0014 20.2725V6.66884C20.9578 6.34664 20.7918 6.05359 20.5379 5.85047C20.284 5.64736 19.9617 5.54976 19.6378 5.57793H16.3651C16.1481 5.57793 15.94 5.49173 15.7865 5.33829C15.6331 5.18485 15.5469 4.97674 15.5469 4.75975C15.5469 4.54275 15.6331 4.33465 15.7865 4.18121C15.94 4.02777 16.1481 3.94157 16.3651 3.94157H19.6378C20.0161 3.92548 20.3938 3.98413 20.7494 4.11419C21.105 4.24424 21.4315 4.44313 21.7101 4.69948C21.9887 4.95584 22.2141 5.26462 22.3733 5.60816C22.5325 5.9517 22.6224 6.32325 22.6378 6.70157V20.2397C22.6224 20.6181 22.5325 20.9896 22.3733 21.3332C22.2141 21.6767 21.9887 21.9855 21.7101 22.2418C21.4315 22.4982 21.105 22.6971 20.7494 22.8271C20.3938 22.9572 20.0161 23.0158 19.6378 22.9998Z" fill="#807F8B"/>
<path id="Vector_2" d="M12.0011 18.6357C11.8936 18.6362 11.787 18.6152 11.6878 18.574C11.5885 18.5328 11.4984 18.4722 11.4229 18.3957C11.2697 18.2423 11.1836 18.0343 11.1836 17.8175C11.1836 17.6007 11.2697 17.3928 11.4229 17.2393L15.2083 13.4539L11.4229 9.66843C11.2784 9.51333 11.1997 9.30819 11.2034 9.09623C11.2071 8.88426 11.293 8.68203 11.4429 8.53212C11.5928 8.38222 11.7951 8.29635 12.007 8.29261C12.219 8.28887 12.4241 8.36755 12.5792 8.51207L16.9429 12.8757C17.0961 13.0291 17.1822 13.2371 17.1822 13.4539C17.1822 13.6707 17.0961 13.8787 16.9429 14.0321L12.5792 18.3957C12.5037 18.4722 12.4136 18.5328 12.3144 18.574C12.2151 18.6152 12.1086 18.6362 12.0011 18.6357Z" fill="#807F8B"/>
<path id="Vector_3" d="M16.3651 14.2721H4.36506C4.14806 14.2721 3.93995 14.1859 3.78651 14.0325C3.63308 13.879 3.54688 13.6709 3.54688 13.4539C3.54688 13.2369 3.63308 13.0288 3.78651 12.8754C3.93995 12.7219 4.14806 12.6357 4.36506 12.6357H16.3651C16.5821 12.6357 16.7902 12.7219 16.9436 12.8754C17.097 13.0288 17.1832 13.2369 17.1832 13.4539C17.1832 13.6709 17.097 13.879 16.9436 14.0325C16.7902 14.1859 16.5821 14.2721 16.3651 14.2721Z" fill="#807F8B"/>
</g>
</svg>
